<svg width="100" height="100" xmlns="http://www.w3.org/2000/svg">
 <defs>
  <style>.cls-1{fill:#f2f2f2;}.cls-2{fill:#86d295;}.cls-3{fill:#a3e2ae;}.cls-4{fill:#757371;}.cls-5{fill:#2e2e2e;}.cls-6{fill:#afaaa2;}.cls-7{fill:#4a4a4a;}.cls-8{fill:#ebeae8;}.cls-9{fill:#a09e9b;}.cls-10{fill:#c3bfb8;}.cls-11{fill:#7bbf88;}</style>
 </defs>
 <title>Artboard 1 copy 23@2x</title>
 <g>
  <title>background</title>
  <rect fill="none" id="canvas_background" height="402" width="582" y="-1" x="-1"/>
 </g>
 <g>
  <title>Layer 1</title>
  <path fill="#84D3DB" id="svg_1" d="m100,50a50,50 0 1 1 -50,-50a50,50 0 0 1 50,50" class="cls-1"/>
  <path id="svg_2" d="m72.26,20.47583l0,0a0.5,0.5 0 1 0 -0.61,0.8l0,0a0.5,0.5 0 0 0 0.6,-0.8l0.01,0zm2.33,1.94l0,0a0.5,0.5 0 1 0 -0.67,0.74l0,0a0.5,0.5 0 0 0 0.67,-0.74zm2.18,2.12l0,0a0.5,0.5 0 1 0 -0.73,0.69l0,0a0.5,0.5 0 0 0 0.73,-0.69zm2,2.29l0,0a0.5,0.5 0 1 0 -0.78,0.63l0,0a0.5,0.5 0 0 0 0.78,-0.62l0,-0.01zm1.8,2.45l0,0a0.5,0.5 0 1 0 -0.83,0.56l0,0a0.5,0.5 0 0 0 0.83,-0.56zm1.59,2.59l0,0a0.5,0.5 0 1 0 -0.87,0.49l0,0a0.5,0.5 0 0 0 0.87,-0.49zm1.37,2.71l0,0a0.5,0.5 0 1 0 -0.91,0.41l0,0a0.5,0.5 0 0 0 0.91,-0.41zm1.14,2.82l0,0a0.5,0.5 0 1 0 -0.3,0.64a0.5,0.5 0 0 0 0.32,-0.63l-0.02,-0.01zm0.91,2.9l0,0a0.5,0.5 0 1 0 -1,0.26l0,0a0.5,0.5 0 0 0 1,-0.26zm0.66,3l0,0a0.5,0.5 0 1 0 -1,0.18l0,0a0.5,0.5 0 0 0 1,-0.18zm0.41,3l0,0a0.5,0.5 0 1 0 -0.45,0.55a0.5,0.5 0 0 0 0.47,-0.56l-0.02,0.01zm0.16,3l0,0a0.5,0.5 0 1 0 -1,0l0,0a0.5,0.5 0 0 0 1,0zm-0.08,3l0,0a0.5,0.5 0 0 0 -1,-0.07l0,0a0.5,0.5 0 1 0 1,0.07zm-0.33,3l0,0a0.5,0.5 0 0 0 -1,-0.15l0,0a0.5,0.5 0 1 0 1,0.15zm-0.58,3l0,0a0.5,0.5 0 0 0 -1,-0.23l0,0a0.5,0.5 0 1 0 1,0.23zm-0.82,3l0,0a0.5,0.5 0 0 0 -1,-0.31l0,0a0.5,0.5 0 1 0 1,0.31zm-0.25,-0.15l0,0a0.5,0.5 0 0 0 -0.92,-0.39l0,0a0.5,0.5 0 1 0 0.92,0.39z" class="cls-2"/>
  <path id="svg_3" d="m15,61.57l0,0a0.5,0.5 0 0 0 0.95,-0.31l0,0a0.5,0.5 0 1 0 -0.95,0.31zm-0.83,-2.92l0,0a0.5,0.5 0 0 0 1,-0.23l0,0a0.5,0.5 0 1 0 -1,0.23zm-0.59,-3l0,0a0.5,0.5 0 1 0 0.42,-0.57a0.5,0.5 0 0 0 -0.4,0.58l-0.02,-0.01zm-0.34,-3l0,0a0.5,0.5 0 0 0 1,-0.07l0,0a0.5,0.5 0 1 0 -1,0.07zm-0.09,-3l0,0a0.5,0.5 0 1 0 0.51,-0.49a0.5,0.5 0 0 0 -0.49,0.44l-0.02,0.05zm0.16,-3l0,0a0.5,0.5 0 1 0 1,0.09l0,0a0.5,0.5 0 0 0 -1,-0.09zm0.41,-3l0,0a0.5,0.5 0 1 0 1,0.17l0,0a0.5,0.5 0 0 0 -1,-0.17zm0.65,-3l0,0a0.5,0.5 0 1 0 1,0.26l0,0a0.5,0.5 0 0 0 -1,-0.26zm0.9,-2.9l0,0a0.5,0.5 0 1 0 0.94,0.33l0,0a0.5,0.5 0 0 0 -0.94,-0.33zm1.14,-2.82l0,0a0.5,0.5 0 1 0 0.66,-0.25a0.5,0.5 0 0 0 -0.65,0.18l-0.01,0.07zm1.37,-2.71l0,0a0.5,0.5 0 1 0 0.87,0.49l0,0a0.5,0.5 0 0 0 -0.87,-0.49zm1.59,-2.59l0,0a0.5,0.5 0 1 0 0.83,0.56l0,0a0.5,0.5 0 0 0 -0.83,-0.56zm1.79,-2.45l0,0a0.5,0.5 0 1 0 0.78,0.62l0,0a0.5,0.5 0 1 0 -0.78,-0.62zm2,-2.3l0,0a0.5,0.5 0 1 0 0.73,0.68l0,0a0.5,0.5 0 0 0 -0.73,-0.68zm2.17,-2.13l0,0a0.5,0.5 0 1 0 0.67,0.74l0,0a0.5,0.5 0 0 0 -0.67,-0.74zm2.34,-1.94l0,0a0.5,0.5 0 1 0 0.61,0.79l0,0a0.5,0.5 0 0 0 -0.61,-0.79zm2.48,-1.81l0,0a0.5,0.5 0 0 0 0.54,0.84l0,0a0.5,0.5 0 0 0 -0.54,-0.84z" class="cls-2"/>
  <path id="svg_4" d="m64.84,22l0.5,0a15.34,15.34 0 1 0 -15.34,15.33a15.34,15.34 0 0 0 15.34,-15.33l-1,0a14.34,14.34 0 1 1 -4.2,-10.14a14.29,14.29 0 0 1 4.2,10.14l0.5,0z" class="cls-3"/>
  <path id="svg_5" d="m90.89,66.74c-4.68,0 -6.38,-0.17 -9.52,-0.41c-9.5,-0.74 -20.14,-3.17 -31.37,-3.17s-21.87,2.43 -31.37,3.17c-3.14,0.24 -4.83,0.39 -9.51,0.41l0,4.09l81.77,0l0,-4.09" class="cls-4"/>
  <path id="svg_6" d="m50,69.93a0.71,0.71 0 0 1 -0.71,-0.71l0,-5.12a0.71,0.71 0 1 1 1.42,0l0,5.12a0.71,0.71 0 0 1 -0.71,0.71" class="cls-2"/>
  <path id="svg_7" d="m46.45,70.45a0.71,0.71 0 0 1 -0.71,-0.71l0,-3.86a0.71,0.71 0 0 1 1.42,0l0,3.86a0.71,0.71 0 0 1 -0.71,0.71z" class="cls-5"/>
  <path id="svg_8" d="m42.71,70.47a0.71,0.71 0 0 1 -0.71,-0.71l0,-3.52a0.71,0.71 0 1 1 1.42,0l0,3.52a0.71,0.71 0 0 1 -0.71,0.71z" class="cls-5"/>
  <path id="svg_9" d="m39,70.5a0.71,0.71 0 0 1 -0.71,-0.71l0,-3.18a0.71,0.71 0 0 1 1.42,0l0,3.18a0.71,0.71 0 0 1 -0.71,0.71z" class="cls-5"/>
  <path id="svg_10" d="m35.23,70.52a0.71,0.71 0 0 1 -0.71,-0.71l0,-2.81a0.71,0.71 0 0 1 1.42,0l0,2.84a0.71,0.71 0 0 1 -0.71,0.68z" class="cls-5"/>
  <path id="svg_11" d="m31.49,70.55a0.71,0.71 0 0 1 -0.71,-0.71l0,-2.51a0.71,0.71 0 1 1 1.42,0l0,2.51a0.71,0.71 0 0 1 -0.71,0.71z" class="cls-5"/>
  <path id="svg_12" d="m27.75,70.58a0.71,0.71 0 0 1 -0.71,-0.71l0,-2.18a0.71,0.71 0 0 1 1.42,0l0,2.17a0.71,0.71 0 0 1 -0.71,0.72z" class="cls-5"/>
  <path id="svg_13" d="m24,70.6a0.71,0.71 0 0 1 -0.71,-0.71l0,-1.83a0.71,0.71 0 0 1 1.42,0l0,1.83a0.71,0.71 0 0 1 -0.71,0.71z" class="cls-5"/>
  <path id="svg_14" d="m20.27,70.63a0.71,0.71 0 0 1 -0.71,-0.71l0,-1.5a0.71,0.71 0 1 1 1.42,0l0,1.5a0.71,0.71 0 0 1 -0.71,0.71z" class="cls-5"/>
  <path id="svg_15" d="m16.53,70.65a0.71,0.71 0 0 1 -0.71,-0.71l0,-1.16a0.71,0.71 0 0 1 1.42,0l0,1.16a0.71,0.71 0 0 1 -0.71,0.71z" class="cls-5"/>
  <path id="svg_16" d="m12.79,70.68a0.71,0.71 0 0 1 -0.71,-0.71l0,-0.82a0.71,0.71 0 0 1 1.42,0l0,0.85a0.71,0.71 0 0 1 -0.71,0.68z" class="cls-5"/>
  <path id="svg_17" d="m53.55,70.45a0.71,0.71 0 0 1 -0.71,-0.71l0,-3.86a0.71,0.71 0 1 1 1.42,0l0,3.86a0.71,0.71 0 0 1 -0.71,0.71z" class="cls-5"/>
  <path id="svg_18" d="m57.29,70.47a0.71,0.71 0 0 1 -0.71,-0.71l0,-3.52a0.71,0.71 0 1 1 1.42,0l0,3.52a0.71,0.71 0 0 1 -0.71,0.71z" class="cls-5"/>
  <path id="svg_19" d="m61,70.5a0.71,0.71 0 0 1 -0.71,-0.71l0,-3.18a0.71,0.71 0 0 1 1.42,0l0,3.18a0.71,0.71 0 0 1 -0.71,0.71z" class="cls-5"/>
  <path id="svg_20" d="m64.77,70.52a0.71,0.71 0 0 1 -0.71,-0.71l0,-2.81a0.71,0.71 0 1 1 1.42,0l0,2.84a0.71,0.71 0 0 1 -0.71,0.68z" class="cls-5"/>
  <path id="svg_21" d="m68.51,70.55a0.71,0.71 0 0 1 -0.71,-0.71l0,-2.51a0.71,0.71 0 1 1 1.42,0l0,2.51a0.71,0.71 0 0 1 -0.71,0.71z" class="cls-5"/>
  <path id="svg_22" d="m72.25,70.58a0.71,0.71 0 0 1 -0.71,-0.71l0,-2.18a0.71,0.71 0 0 1 1.42,0l0,2.17a0.71,0.71 0 0 1 -0.71,0.72z" class="cls-5"/>
  <path id="svg_23" d="m76,70.6a0.71,0.71 0 0 1 -0.71,-0.71l0,-1.83a0.71,0.71 0 1 1 1.42,0l0,1.83a0.71,0.71 0 0 1 -0.71,0.71z" class="cls-5"/>
  <path id="svg_24" d="m79.73,70.63a0.71,0.71 0 0 1 -0.71,-0.71l0,-1.5a0.71,0.71 0 1 1 1.42,0l0,1.5a0.71,0.71 0 0 1 -0.71,0.71z" class="cls-5"/>
  <path id="svg_25" d="m83.47,70.65a0.71,0.71 0 0 1 -0.71,-0.71l0,-1.16a0.71,0.71 0 0 1 1.42,0l0,1.16a0.71,0.71 0 0 1 -0.71,0.71z" class="cls-5"/>
  <path id="svg_26" d="m87.21,70.68a0.71,0.71 0 0 1 -0.71,-0.68l0,-0.82a0.71,0.71 0 1 1 1.42,0l0,0.82a0.71,0.71 0 0 1 -0.71,0.68z" class="cls-5"/>
  <path id="svg_27" d="m7.35,69.49l0,9.51a2.39,2.39 0 0 0 2.34,2.44l80.62,0a2.39,2.39 0 0 0 2.34,-2.44l0,-9.51l-85.3,0z" class="cls-6"/>
  <path id="svg_28" d="m23.09,81.44l53.82,0c-8.32,-1.25 -17.4,-3.44 -26.91,-3.44s-18.59,2.19 -26.91,3.44z" class="cls-4"/>
  <rect id="svg_29" height="1.78" width="85.3" y="69.49" x="7.35" class="cls-7"/>
  <path id="svg_30" d="m92.65,66.28l-0.07,0c-11.77,0 -20.67,-8.39 -42.58,-8.39s-30.84,8.39 -42.65,8.39l0,1.42c5.91,0 7.71,-0.14 11,-0.4l0.34,0c3.62,-0.3 7.31,-0.82 11.31,-1.37a144,144 0 0 1 20,-1.82a144,144 0 0 1 20,1.82c4,0.55 7.7,1.07 11.32,1.35l0.34,0c3.28,0.25 5.08,0.39 11,0.39l0,-1.39" class="cls-6"/>
  <path id="svg_31" d="m9.11,67.69l0,0m-1.76,-1.41l0,0l0,1.42l0,0l0,-1.42l0,0m85.22,0l0.08,0l0,1.42l0,0l0,-1.42l-0.08,0" class="cls-8"/>
  <path id="svg_32" d="m18.3,67.31c-2.9,0.23 -4.66,0.36 -9.19,0.39l0,0c4.53,0 6.29,-0.16 9.19,-0.39m63.39,0c2.9,0.23 4.66,0.36 9.19,0.39l0,0c-4.53,0 -6.29,-0.16 -9.19,-0.39m-51.69,-1.38c-4,0.55 -7.7,1.07 -11.32,1.35c3.63,-0.28 7.32,-0.8 11.32,-1.35m40,0c4,0.55 7.7,1.07 11.32,1.35c-3.63,-0.28 -7.32,-0.8 -11.32,-1.35m-20.71,-1.82a148.76,148.76 0 0 0 -19.29,1.82a148.83,148.83 0 0 1 19.28,-1.81l0,0m1.42,0l0,0a148.83,148.83 0 0 1 19.3,1.81a148.77,148.77 0 0 0 -19.28,-1.81" class="cls-9"/>
  <path id="svg_33" d="m50,62.69a145.13,145.13 0 0 0 -20.19,1.83c-3.94,0.55 -7.65,1.07 -11.24,1.34l-0.34,0c-3.24,0.25 -5,0.39 -10.88,0.39l0,0l0,1.45l1.76,0c4.53,0 6.29,-0.16 9.19,-0.39l0,0l0.34,0l0,0c3.67,-0.31 7.36,-0.83 11.36,-1.38l0,0a148.76,148.76 0 0 1 19.28,-1.81l1.42,0a148.77,148.77 0 0 1 19.3,1.81l0,0c4,0.55 7.7,1.07 11.32,1.35l0,0l0.34,0l0,0c2.9,0.23 4.66,0.36 9.19,0.39l1.76,0l0,-1.39l-0.08,0c-5.79,0 -7.57,-0.14 -10.8,-0.39l-0.34,0c-3.58,-0.28 -7.3,-0.8 -11.24,-1.34a145.13,145.13 0 0 0 -20.15,-1.86" class="cls-10"/>
  <path id="svg_34" d="m65.53,29.33l-1.6,0a0.23,0.23 0 0 1 -0.21,-0.15l-1,-2.65a0.5,0.5 0 0 0 -0.93,0l-1.13,2.68a0.23,0.23 0 0 1 -0.21,0.14l-2.5,0a0.23,0.23 0 0 1 -0.23,-0.19l-2.12,-13.67a0.5,0.5 0 0 0 -1,0l-2,13.64a0.23,0.23 0 0 1 -0.23,0.2l-2.37,0a0.23,0.23 0 0 1 -0.23,-0.21l0,0l-2,-16.89a0.5,0.5 0 0 0 -1,0l-1.84,16.87l0,0a0.23,0.23 0 0 1 -0.23,0.21l-2.31,0a0.23,0.23 0 0 1 -0.23,-0.19l0,0l-1.71,-9.12a0.5,0.5 0 0 0 -1,0l-1.71,9.15l0,0a0.23,0.23 0 0 1 -0.23,0.19l-3.04,0a0.5,0.5 0 0 0 0,1l3.06,0a1.23,1.23 0 0 0 1.21,-1l0,0l1.26,-6.55l1.22,6.51l0,0a1.23,1.23 0 0 0 1.21,1l2.27,0a1.23,1.23 0 0 0 1.22,-1.12l0,0l1.38,-12.53l1.51,12.57l0,0a1.23,1.23 0 0 0 1.19,1.11l2.4,0a1.23,1.23 0 0 0 1.22,-1.05l1.51,-10.34l1.6,10.35a1.23,1.23 0 0 0 1.21,1l2.5,0a1.23,1.23 0 0 0 1.13,-0.75l0.64,-1.54l0.57,1.49a1.23,1.23 0 0 0 1.15,0.79l1.59,0a0.5,0.5 0 0 0 0,-1l0.01,0.05z" class="cls-11"/>
 </g>
</svg>